<svg width="2731" height="4050" viewBox="0 0 2731 4050" fill="none" xmlns="http://www.w3.org/2000/svg">
<path d="M0.958008 1131.82C0.958008 1076.59 45.7295 1031.82 100.958 1031.82L1065.96 1031.82C1121.19 1031.82 1165.96 1076.59 1165.96 1131.82L1165.96 4049.82L800.958 4049.82C359.13 4049.82 0.958022 3691.65 0.958019 3249.82L0.958008 1131.82Z" fill="#804dee"/>
<path d="M1565.96 0.823486L1930.96 0.823484C2372.78 0.823482 2730.96 358.996 2730.96 800.823L2730.96 3762.82C2730.96 3818.05 2686.19 3862.82 2630.96 3862.82L1665.96 3862.82C1610.73 3862.82 1565.96 3818.05 1565.96 3762.82L1565.96 0.823486Z" fill="#804dee"/>
<rect x="1226" y="1545" width="280" height="693" rx="20" fill="#804dee"/>
</svg>
