<svg width="28" height="28" viewBox="0 0 28 28" fill="none" xmlns="http://www.w3.org/2000/svg">
<path d="M9.5 12C10.33 12 11 11.33 11 10.5C11 9.67 10.33 9 9.5 9C8.67 9 8 9.67 8 10.5C8 11.33 8.67 12 9.5 12Z" fill="#915EFF"/>
<path d="M18.5 12C19.33 12 20 11.33 20 10.5C20 9.67 19.33 9 18.5 9C17.67 9 17 9.67 17 10.5C17 11.33 17.67 12 18.5 12Z" fill="#915EFF"/>
<path d="M21.8703 18.36C22.1403 17.88 21.9701 17.27 21.4901 17C21.0001 16.73 20.39 16.91 20.13 17.39C18.93 19.55 16.6301 21 14.0001 21C11.4101 21 9.15008 19.59 7.94008 17.5C7.66008 17.02 7.0502 16.86 6.5702 17.13C6.0902 17.41 5.93008 18.02 6.20008 18.5C7.76008 21.19 10.6701 23 14.0001 23C17.3901 23 20.3403 21.13 21.8703 18.36Z" fill="#915EFF"/>
<path fill-rule="evenodd" clip-rule="evenodd" d="M0 14C0 6.27 6.27 0 14 0C21.73 0 28 6.27 28 14C28 21.73 21.73 28 14 28C6.27 28 0 21.73 0 14ZM14 2C7.37 2 2 7.37 2 14C2 20.63 7.37 26 14 26C20.63 26 26 20.63 26 14C26 7.37 20.63 2 14 2Z" fill="#915EFF"/>
</svg>
